<svg xmlns="http://www.w3.org/2000/svg" viewBox="0 0 900 120">
  <defs>
    <linearGradient id="lk-gradient" x1="0%" y1="0%" x2="100%" y2="100%">
      <stop offset="0%" stop-color="#00D4FF"/>
      <stop offset="100%" stop-color="#22FFAA"/>
    </linearGradient>
  </defs>

  <!-- New Phase 1.5 mark (transparent BG, white C + green slash). -->
  <!-- Source: clawless-v1 logo-mark.svg (1024x1024 viewBox), founder-auth -->
  <!-- 2026-05-15 via Clawless Advisor. Scale 0.135 sizes the visible content -->
  <!-- (which spans ~768x798 within the 1024x1024 viewBox) to roughly 104x108 -->
  <!-- in the lockup slot. Translate(-8,-4) lands the content top-left at -->
  <!-- approximately (10, 6) to match the prior mark's footprint and gives -->
  <!-- visual weight that balances the wordmark typography. -->
  <g transform="translate(-8, -4) scale(0.135)">
    <g fill="#FFFFFF">
      <path d="M 134.00,874.50 C 140.08,862.08 168.67,833.50 185.50,815.00 C 202.33,796.50 221.50,774.33 232.50,761.00 C 243.50,747.67 246.17,744.33 251.50,735.00 C 256.83,725.67 262.00,711.83 264.50,705.00 C 267.00,698.17 266.50,702.00 266.50,694.00 C 266.50,686.00 268.33,671.83 264.50,657.00 C 260.67,642.17 248.50,620.50 243.50,605.00 C 238.50,589.50 236.33,574.17 234.50,564.00 C 232.67,553.83 232.50,557.17 232.50,544.00 C 232.50,530.83 232.67,501.83 234.50,485.00 C 236.33,468.17 239.17,457.50 243.50,443.00 C 247.83,428.50 254.00,412.00 260.50,398.00 C 267.00,384.00 275.33,370.00 282.50,359.00 C 289.67,348.00 293.58,342.58 303.50,332.00 C 313.42,321.42 328.08,306.42 342.00,295.50 C 355.92,284.58 372.00,274.50 387.00,266.50 C 402.00,258.50 416.67,252.50 432.00,247.50 C 447.33,242.50 460.17,238.67 479.00,236.50 C 497.83,234.33 527.50,233.83 545.00,234.50 C 562.50,235.17 571.33,237.67 584.00,240.50 C 596.67,243.33 610.50,247.83 621.00,251.50 C 631.50,255.17 636.00,256.67 647.00,262.50 C 658.00,268.33 679.75,281.92 687.00,286.50 C 694.25,291.08 690.33,288.83 690.50,290.00 C 690.67,291.17 704.08,284.92 688.00,293.50 C 671.92,302.08 614.83,335.33 594.00,341.50 C 573.17,347.67 573.17,333.00 563.00,330.50 C 552.83,328.00 542.00,327.17 533.00,326.50 C 524.00,325.83 518.17,325.83 509.00,326.50 C 499.83,327.17 487.67,328.50 478.00,330.50 C 468.33,332.50 459.50,335.33 451.00,338.50 C 442.50,341.67 435.33,344.83 427.00,349.50 C 418.67,354.17 408.42,360.92 401.00,366.50 C 393.58,372.08 388.58,376.75 382.50,383.00 C 376.42,389.25 371.67,393.33 364.50,404.00 C 357.33,414.67 345.17,435.50 339.50,447.00 C 333.83,458.50 332.83,464.83 330.50,473.00 C 328.17,481.17 326.50,484.33 325.50,496.00 C 324.50,507.67 323.67,529.50 324.50,543.00 C 325.33,556.50 326.67,564.83 330.50,577.00 C 334.33,589.17 342.50,606.17 347.50,616.00 C 352.50,625.83 354.17,628.00 360.50,636.00 C 366.83,644.00 423.25,624.25 385.50,664.00 C 347.75,703.75 175.92,839.42 134.00,874.50 C 92.08,909.58 134.42,874.92 134.00,874.50 Z"/>
      <path d="M 540.00,810.50 C 476.17,807.83 460.33,804.83 445.00,800.50 C 429.67,796.17 412.17,788.83 400.00,783.50 C 387.83,778.17 378.75,772.58 372.00,768.50 C 365.25,764.42 345.17,769.17 359.50,759.00 C 373.83,748.83 436.25,714.75 458.00,707.50 C 479.75,700.25 476.83,713.83 490.00,715.50 C 503.17,717.17 523.00,718.17 537.00,717.50 C 551.00,716.83 563.00,714.33 574.00,711.50 C 585.00,708.67 593.67,704.83 603.00,700.50 C 612.33,696.17 622.67,690.17 630.00,685.50 C 637.33,680.83 640.25,678.58 647.00,672.50 C 653.75,666.42 663.33,657.17 670.50,649.00 C 677.67,640.83 674.25,621.75 690.00,623.50 C 705.75,625.25 751.42,652.58 765.00,659.50 C 778.58,666.42 773.42,659.42 771.50,665.00 C 769.58,670.58 760.67,683.50 753.50,693.00 C 746.33,702.50 736.75,713.25 728.50,722.00 C 720.25,730.75 713.08,737.92 704.00,745.50 C 694.92,753.08 682.83,761.67 674.00,767.50 C 665.17,773.33 662.33,775.33 651.00,780.50 C 639.67,785.67 618.83,794.17 606.00,798.50 C 593.17,802.83 585.00,804.50 574.00,806.50 C 563.00,808.50 545.67,809.83 540.00,810.50 C 534.33,811.17 548.00,810.67 540.00,810.50 Z"/>
    </g>
    <g fill="#22FFAA">
      <path d="M 432.00,629.50 C 507.83,547.83 822.83,232.83 902.00,154.50 C 981.17,76.17 909.08,149.92 904.50,157.00 C 899.92,164.08 885.00,181.83 874.50,197.00 C 864.00,212.17 850.50,232.50 841.50,248.00 C 832.50,263.50 826.17,276.50 820.50,290.00 C 814.83,303.50 810.67,316.33 807.50,329.00 C 804.33,341.67 802.50,346.17 801.50,366.00 C 800.50,385.83 800.50,424.17 801.50,448.00 C 802.50,471.83 806.92,498.42 807.50,509.00 C 808.08,519.58 806.00,511.67 805.00,511.50 C 804.00,511.33 811.67,519.67 801.50,508.00 C 791.33,496.33 756.42,453.75 744.00,441.50 C 731.58,429.25 733.17,435.50 727.00,434.50 C 720.83,433.50 713.50,433.50 707.00,435.50 C 700.50,437.50 733.83,414.17 688.00,446.50 C 642.17,478.83 474.67,599.00 432.00,629.50 C 389.33,660.00 432.42,629.92 432.00,629.50 Z"/>
    </g>
  </g>

  <!-- Wordmark to the right of the icon (unchanged from prior lockup) -->
  <text
    x="140" y="84"
    font-family="-apple-system, BlinkMacSystemFont, 'Segoe UI', system-ui, sans-serif"
    font-size="68"
    font-weight="800"
    letter-spacing="-1.5"
    fill="#F1F5F9"
  >Clawless</text>

  <text
    x="490" y="84"
    font-family="-apple-system, BlinkMacSystemFont, 'Segoe UI', system-ui, sans-serif"
    font-size="68"
    font-weight="800"
    letter-spacing="-1.5"
    fill="url(#lk-gradient)"
  >Computer</text>
</svg>
